<?xml version="1.0" standalone="no"?>
<!DOCTYPE svg PUBLIC "-//W3C//DTD SVG 20010904//EN"
 "http://www.w3.org/TR/2001/REC-SVG-20010904/DTD/svg10.dtd">
<svg version="1.0" xmlns="http://www.w3.org/2000/svg"
 width="400.000000pt" height="400.000000pt" viewBox="0 0 400.000000 400.000000"
 preserveAspectRatio="xMidYMid meet">
<metadata>
Created by potrace 1.11, written by Peter Selinger 2001-2013
</metadata>
<g transform="translate(0.000000,400.000000) scale(0.100000,-0.100000)"
fill="#000000" stroke="none">
<path d="M1895 3793 c-196 -19 -516 -105 -551 -149 -6 -8 -14 -11 -17 -8 -8 9
-132 -62 -216 -124 -98 -72 -268 -245 -351 -356 -71 -97 -180 -279 -180 -301
0 -8 -4 -16 -9 -20 -13 -8 -87 -235 -106 -325 -23 -108 -30 -187 -30 -335 1
-165 9 -237 46 -386 72 -295 244 -590 453 -778 16 -14 46 -42 67 -62 21 -20
45 -39 54 -43 8 -3 20 -16 25 -28 5 -13 9 -17 9 -10 1 7 6 10 11 7 6 -4 8 -11
5 -16 -4 -5 4 -9 15 -9 14 0 24 -8 27 -20 3 -11 10 -20 17 -19 30 4 37 -2 31
-23 -6 -19 -5 -21 6 -10 7 6 17 12 21 12 4 0 7 -6 6 -12 -2 -7 5 -12 15 -12 9
1 17 -2 17 -7 0 -12 -27 -11 -35 1 -8 13 -45 7 -55 -10 -4 -7 -13 -9 -20 -5
-8 5 -11 3 -8 -6 3 -8 11 -13 17 -11 6 1 11 -2 11 -8 0 -14 -13 -13 -28 2 -8
8 -12 8 -12 1 0 -6 7 -16 15 -23 8 -7 15 -18 15 -24 0 -6 -4 -5 -9 3 -7 10
-13 11 -30 2 -12 -7 -26 -9 -31 -6 -5 3 -11 1 -14 -4 -9 -14 23 -22 44 -11 10
6 21 6 24 2 7 -11 2 -40 -9 -49 -4 -4 -5 -3 -1 4 4 8 -2 11 -21 10 -19 -2 -29
-8 -30 -22 -2 -11 0 -14 3 -7 3 6 10 12 16 12 6 0 5 -6 -2 -15 -11 -13 -9 -20
10 -40 19 -21 21 -27 10 -40 -12 -14 -9 -21 18 -48 35 -34 45 -25 12 11 -24
26 -27 40 -4 21 15 -12 16 -11 9 11 -4 14 -11 29 -16 35 -12 12 -11 25 1 25 5
0 9 -3 8 -7 -1 -5 4 -21 10 -36 7 -16 9 -33 6 -38 -3 -6 -1 -15 4 -22 6 -7 9
-24 7 -39 -2 -16 1 -30 6 -34 9 -5 11 3 12 43 0 20 2 21 20 8 10 -7 27 -11 36
-8 12 4 13 3 2 -5 -9 -7 -10 -12 -2 -16 14 -9 14 -26 1 -26 -5 0 -9 5 -7 11 1
6 -8 18 -20 26 -15 10 -23 11 -23 4 0 -6 7 -14 15 -17 8 -4 15 -10 15 -16 0
-5 -5 -6 -11 -2 -7 4 -10 1 -7 -6 5 -16 76 -22 84 -8 3 5 14 -1 25 -13 10 -12
16 -25 13 -30 -2 -4 9 -6 26 -4 20 2 33 -2 40 -13 9 -16 9 -16 10 0 0 21 -19
33 -45 30 -19 -2 -19 -2 -2 9 10 6 21 8 24 5 3 -3 11 2 18 11 9 13 14 13 20 3
5 -8 4 -11 -2 -7 -6 4 -13 0 -17 -8 -7 -18 20 -33 54 -30 14 2 34 -3 45 -10
11 -6 34 -12 51 -11 23 1 30 -3 26 -13 -8 -21 16 -4 29 21 10 18 8 19 -13 13
-20 -5 -20 -4 -5 5 25 16 40 3 26 -22 -10 -18 -9 -20 4 -15 11 4 14 2 10 -8
-3 -8 -9 -13 -13 -10 -5 3 -11 1 -15 -5 -4 -6 -11 -7 -17 -4 -7 4 -8 2 -4 -4
4 -7 2 -12 -3 -12 -10 0 -15 13 -13 31 1 4 -10 6 -23 5 -24 -1 -30 -21 -7 -21
5 0 14 -4 19 -9 5 -5 2 -6 -6 -1 -10 5 -12 4 -7 -4 4 -6 11 -9 16 -6 5 3 8 -4
7 -15 -2 -28 -14 -25 -31 8 -9 15 -16 20 -16 12 0 -12 -3 -11 -11 3 -8 14 -14
15 -30 6 -19 -10 -20 -9 -9 11 10 19 10 20 -7 12 -10 -5 -26 -8 -35 -7 -10 2
-18 -1 -18 -6 0 -5 -5 -9 -11 -9 -8 0 -7 6 2 17 12 14 12 16 0 8 -10 -6 -12
-4 -6 6 5 8 -2 5 -15 -6 -15 -13 -21 -15 -16 -5 4 8 0 6 -8 -4 -9 -11 -16 -15
-16 -10 0 6 6 16 13 23 8 10 9 12 0 7 -7 -4 -17 2 -23 14 -6 11 -8 20 -4 20 3
0 1 7 -6 15 -7 8 -17 15 -22 15 -6 0 -6 -6 1 -14 9 -11 9 -16 0 -22 -8 -5 -9
-3 -4 7 7 11 5 11 -10 -1 -10 -8 -16 -10 -12 -3 5 8 1 11 -13 8 -13 -3 -18 0
-14 7 5 7 2 8 -7 2 -21 -13 -40 -14 -33 -2 4 7 2 8 -4 4 -7 -4 -9 1 -7 15 4
21 4 21 -18 3 -21 -19 -21 -19 -7 1 14 20 14 20 -6 1 -13 -13 -15 -20 -6 -23
6 -3 10 -9 7 -13 -3 -5 -12 -7 -20 -4 -11 5 -12 11 -5 24 14 26 -2 32 -30 13
l-23 -16 23 -12 c14 -7 18 -15 12 -19 -6 -3 -13 -2 -17 4 -3 5 -16 10 -27 10
-21 0 -21 0 2 25 13 14 29 25 36 25 7 0 16 4 19 10 4 6 -1 7 -12 4 -15 -5 -16
-4 -3 5 12 9 9 11 -13 7 -15 -3 -25 -1 -22 5 4 5 16 9 27 9 12 0 18 3 14 7
-11 11 -30 10 -37 0 -4 -5 -10 -4 -13 2 -4 6 -2 11 5 11 6 0 3 8 -8 17 -10 10
-12 14 -4 8 12 -9 12 -7 0 13 -8 12 -15 18 -17 12 -5 -15 -19 -12 -19 5 0 8 4
12 9 9 4 -3 8 0 8 6 0 7 -7 10 -17 6 -14 -5 -14 -3 2 9 35 25 45 36 45 45 0 5
-7 7 -15 4 -8 -3 -13 -11 -12 -16 1 -6 -4 -13 -12 -16 -10 -3 -12 0 -8 12 4 9
3 15 -1 12 -5 -3 -8 15 -7 39 0 25 -3 41 -9 38 -5 -4 -6 -1 -1 6 6 10 3 11
-15 1 -18 -10 -21 -9 -17 2 2 7 10 12 16 10 6 -1 11 4 11 10 0 7 5 5 11 -4 5
-10 15 -18 22 -18 7 0 6 4 -3 10 -10 6 -11 10 -2 10 6 0 12 4 12 10 0 5 -6 7
-13 4 -8 -3 -20 2 -27 11 -14 17 0 21 17 4 8 -8 13 -7 18 1 4 7 1 16 -6 21 -9
6 -10 9 -2 9 7 0 16 -7 21 -16 6 -11 11 -13 16 -5 4 6 3 11 -1 11 -5 0 -9 8
-10 18 -1 14 6 17 30 17 37 -2 60 12 50 29 -4 6 -8 18 -8 26 0 8 -6 14 -14 12
-7 -1 -18 2 -25 7 -8 6 -17 6 -26 -1 -12 -8 -12 -9 2 -4 10 3 20 1 24 -5 3 -6
12 -8 20 -5 8 3 14 2 14 -3 0 -16 -13 -20 -32 -10 -30 16 -50 -7 -24 -27 23
-17 13 -19 -16 -3 -16 9 -23 7 -35 -10 -8 -12 -20 -21 -28 -21 -8 0 -17 -4
-20 -10 -12 -19 14 -10 44 16 20 17 31 21 31 12 0 -8 -14 -22 -31 -32 -26 -15
-28 -20 -17 -34 11 -14 10 -15 -6 -9 -13 5 -27 1 -43 -14 -33 -32 -29 -56 10
-50 4 0 7 -3 7 -7 0 -18 -13 -20 -36 -5 -13 8 -24 11 -24 7 0 -17 48 -32 61
-20 9 8 10 7 5 -7 -3 -10 -6 -21 -6 -23 0 -3 -4 -2 -10 1 -5 3 -10 1 -10 -5 0
-7 7 -9 16 -6 9 4 23 1 30 -5 9 -7 14 -8 14 -1 0 6 -5 13 -10 15 -6 3 -5 4 2
3 7 -2 13 -9 13 -17 0 -9 -12 -14 -37 -14 -21 -1 -38 3 -38 9 0 5 -3 6 -6 3
-11 -11 16 -36 32 -30 8 3 14 1 14 -5 0 -6 -4 -12 -9 -14 -5 -2 -3 -12 6 -23
15 -20 15 -20 9 2 -5 16 -3 21 8 19 20 -3 33 -16 17 -16 -8 0 -11 -7 -7 -15 3
-9 0 -15 -9 -15 -7 0 -17 -4 -20 -10 -4 -6 4 -6 21 0 20 8 30 8 38 -1 6 -7 7
-10 1 -7 -5 3 -19 2 -30 -3 l-20 -9 20 1 c36 2 46 -1 40 -11 -3 -5 -13 -6 -23
-3 -9 3 -5 -4 10 -15 17 -14 33 -20 45 -15 16 6 16 5 4 -10 -13 -16 -16 -16
-37 -2 -21 14 -24 13 -33 -3 -7 -14 -6 -19 4 -19 7 0 11 7 8 15 -5 12 -3 12
15 1 11 -7 18 -17 16 -21 -3 -5 3 -11 13 -14 10 -3 25 -9 34 -14 10 -5 21 -4
29 3 10 9 14 9 17 -1 3 -8 11 -5 24 10 23 28 25 16 3 -18 -15 -22 -15 -24 0
-18 9 3 14 10 11 14 -3 5 -1 11 4 14 5 3 12 -1 15 -10 8 -22 8 -22 -11 -28
-14 -4 -13 -4 2 -3 16 2 19 9 17 31 -2 17 1 25 7 21 6 -3 11 -13 11 -21 0 -10
8 -13 25 -10 13 3 27 0 30 -5 6 -9 -7 -13 -37 -10 -20 2 -24 -14 -6 -25 7 -4
8 -3 4 4 -4 7 -2 12 4 12 6 0 13 -7 16 -15 4 -8 10 -12 15 -9 5 3 9 -3 10 -13
0 -13 2 -14 6 -4 3 8 -2 20 -11 26 -14 10 -14 14 -3 18 18 7 38 -33 32 -62 -3
-18 -1 -20 16 -11 22 12 26 22 5 14 -11 -4 -13 0 -9 14 2 11 0 23 -6 26 -6 4
-11 11 -11 17 0 19 16 8 33 -23 18 -31 19 -32 30 -13 14 24 54 31 54 9 0 -9
-7 -12 -16 -9 -10 3 -22 -4 -29 -15 -7 -11 -8 -20 -3 -20 5 0 12 7 15 16 6 15
8 15 32 -1 19 -12 29 -14 39 -5 8 6 11 18 8 26 -3 8 0 14 6 14 6 0 11 -4 11
-10 0 -22 2 -25 18 -34 10 -6 17 -5 20 2 2 7 8 9 13 6 6 -4 6 -11 -1 -19 -22
-27 0 -37 35 -16 l34 20 21 -27 c14 -20 18 -21 13 -7 -6 18 -5 18 10 6 9 -7
17 -9 17 -3 0 5 -7 12 -15 16 -8 3 -15 10 -15 17 0 6 20 -1 45 -15 25 -13 43
-21 40 -16 -3 4 1 10 7 13 10 3 10 7 -1 20 -8 10 -9 17 -3 17 6 0 14 -6 19
-13 8 -12 9 -17 12 -37 0 -5 10 -1 21 10 12 12 26 17 32 14 9 -6 8 -9 -1 -12
-14 -5 -55 -42 -46 -42 14 0 64 44 59 52 -3 4 2 8 11 8 10 0 13 -5 9 -12 -5
-8 -2 -9 9 -5 10 4 20 0 26 -11 9 -14 11 -14 12 -2 1 8 1 19 0 24 -1 5 5 6 14
2 9 -3 19 -6 22 -6 2 0 -3 -7 -12 -16 -21 -22 -5 -41 22 -25 16 11 15 11 -7 5
-24 -6 -24 -5 -8 12 14 14 20 15 32 5 12 -10 15 -8 21 8 3 12 12 18 20 15 12
-5 12 -8 0 -21 -8 -8 -15 -20 -15 -26 0 -7 4 -6 10 3 9 13 12 12 25 -4 8 -11
15 -15 15 -9 0 7 -4 14 -9 18 -14 8 -9 46 6 41 8 -3 10 1 6 11 -4 9 -2 14 3
10 6 -3 16 -2 23 2 9 6 10 11 2 15 -6 4 -11 3 -11 -2 0 -5 -7 -9 -15 -9 -8 0
-11 5 -8 11 3 6 0 5 -8 -2 -17 -15 -25 -15 -27 1 0 6 -2 21 -4 31 -2 10 3 21
10 23 6 3 12 0 12 -7 0 -6 -4 -8 -10 -5 -5 3 -10 1 -10 -4 0 -6 5 -11 11 -11
5 0 7 -5 3 -11 -4 -7 -1 -10 7 -7 8 3 13 14 11 24 -2 16 -1 17 7 4 9 -13 11
-13 11 2 0 9 -6 19 -12 21 -10 4 -10 6 0 6 18 1 26 -27 12 -44 -9 -11 -8 -14
9 -12 14 1 19 8 18 22 -1 11 3 19 11 18 6 -2 12 2 12 8 0 8 5 8 15 -1 12 -10
16 -8 24 11 7 17 10 19 10 7 1 -9 -3 -20 -9 -23 -5 -3 -10 -12 -10 -18 1 -7 9
-2 19 10 13 16 21 19 29 11 8 -8 15 -8 27 2 10 8 15 9 15 1 0 -6 -6 -11 -12
-11 -9 0 -8 -4 2 -10 25 -16 29 -12 25 28 -2 20 -1 30 2 22 4 -8 12 -21 20
-28 7 -8 11 -18 8 -23 -8 -12 6 -11 25 1 8 5 10 10 4 10 -7 0 -15 8 -18 17 -6
15 -4 15 14 -2 11 -10 20 -13 20 -7 0 6 -4 14 -10 17 -5 3 -10 10 -10 15 0 5
13 -4 28 -20 27 -27 40 -66 18 -53 -6 4 -6 0 1 -8 10 -12 8 -17 -8 -27 -18
-12 -27 -3 -12 12 11 11 11 57 0 53 -13 -4 -18 -37 -6 -37 6 0 7 -5 3 -11 -4
-8 -9 -7 -15 2 -4 7 -5 17 -3 21 3 4 0 8 -5 8 -6 0 -11 -5 -11 -11 0 -5 -4 -8
-9 -4 -5 3 -17 -2 -25 -11 -9 -8 -16 -11 -16 -5 0 5 -10 7 -22 5 -13 -3 -28
-6 -35 -6 -7 -1 -9 -6 -6 -11 3 -6 1 -7 -5 -3 -6 3 -9 15 -7 26 5 28 -11 25
-41 -7 -14 -16 -29 -28 -33 -28 -9 0 -41 -31 -41 -41 0 -3 6 -1 14 5 7 6 22 8
32 5 17 -6 17 -5 -1 10 -16 13 -17 15 -2 10 10 -4 17 -1 17 6 0 6 5 8 10 5 6
-4 8 -10 5 -14 -2 -5 7 -21 20 -35 14 -15 25 -23 25 -17 0 5 -5 13 -11 16 -6
4 -8 13 -5 21 3 8 0 11 -8 8 -7 -3 -13 2 -13 10 0 8 8 14 17 13 18 -1 47 -27
30 -27 -5 0 -10 -5 -10 -11 0 -8 5 -8 15 1 12 10 18 10 32 -1 11 -10 14 -10 9
-1 -4 6 -2 13 3 13 6 1 17 2 24 3 6 1 19 -7 28 -18 12 -15 18 -16 24 -6 5 8 4
11 -1 7 -6 -3 -15 3 -22 14 -14 21 -3 26 17 6 11 -10 12 -9 6 2 -6 11 -4 13 7
8 9 -3 19 -3 22 1 4 3 16 6 27 7 13 1 18 -3 15 -12 -3 -8 -2 -12 3 -9 5 3 12
-1 15 -10 3 -8 10 -13 15 -10 5 4 12 1 14 -4 3 -6 4 -5 3 2 -2 7 -9 12 -15 11
-18 -5 -13 12 10 33 21 19 22 19 15 -3 -5 -15 -3 -23 4 -23 6 0 8 5 5 10 -9
14 9 12 24 -2 7 -7 11 -8 10 -3 -1 6 3 21 9 35 6 14 11 19 11 12 1 -10 5 -10
17 2 8 9 20 16 27 16 6 0 2 -7 -9 -15 -10 -8 -14 -15 -8 -15 5 0 15 5 21 11 6
6 16 8 22 5 16 -10 13 -26 -3 -20 -8 3 -17 1 -21 -5 -4 -7 2 -10 17 -8 17 3
23 11 24 33 1 16 0 23 -3 16 -4 -10 -8 -9 -18 5 -7 10 -14 23 -16 28 -1 6 -9
16 -16 23 -7 7 -13 19 -13 25 0 7 4 6 10 -3 5 -8 12 -11 16 -7 4 3 1 14 -6 22
-11 13 -11 16 1 13 9 -2 13 4 11 19 -2 12 1 24 7 27 5 3 7 -3 4 -14 -4 -16 -2
-19 13 -14 18 6 18 6 0 -8 -10 -8 -20 -28 -22 -43 -2 -22 0 -25 9 -16 6 6 12
19 12 28 0 9 6 17 13 19 7 1 8 0 2 -3 -18 -9 -11 -18 15 -19 25 -2 25 -1 10
22 -8 13 -15 27 -15 31 0 4 5 0 11 -10 6 -9 15 -15 20 -11 6 3 5 12 -3 22 -8
10 -8 13 -1 9 6 -4 13 -4 16 0 2 5 2 3 1 -4 -5 -19 31 -59 40 -45 4 7 2 12 -4
12 -6 0 2 11 17 24 27 24 27 25 6 23 -13 -1 -23 -7 -23 -14 0 -7 -5 -13 -10
-13 -7 0 -7 6 -1 19 6 11 19 17 33 16 32 -3 32 -3 18 -20 -15 -18 1 -20 18 -3
9 9 12 9 12 -1 0 -7 5 -9 12 -5 8 5 5 13 -10 25 -12 9 -22 20 -22 24 0 4 7 1
17 -6 13 -11 17 -11 20 -1 3 6 10 12 16 12 8 0 7 -4 -1 -12 -17 -17 -15 -33 3
-18 8 6 18 9 23 7 14 -10 36 11 39 37 2 14 -1 26 -7 26 -5 0 -10 5 -10 11 0 6
5 7 13 2 16 -10 57 -11 57 -1 0 4 -6 9 -12 9 -7 1 -17 2 -23 4 -5 1 -14 3 -19
3 -5 1 -1 12 10 23 19 22 19 22 -6 15 -19 -6 -21 -5 -10 3 8 6 24 8 35 5 18
-6 17 -4 -5 21 -14 16 -19 25 -12 21 6 -4 12 -2 12 3 0 6 5 11 11 11 8 0 8 -4
0 -14 -10 -11 -7 -14 14 -12 14 0 25 4 25 9 0 4 0 10 0 15 -1 15 -49 20 -69 5
-12 -8 -21 -10 -21 -4 0 6 5 11 11 11 5 0 7 5 4 10 -4 6 7 8 30 5 31 -4 35 -2
25 10 -7 8 -16 12 -22 9 -5 -3 -20 1 -32 10 -22 14 -25 14 -38 -5 -13 -21 -13
-21 -33 3 l-20 23 20 -17 c20 -16 21 -16 33 2 16 27 15 35 -3 20 -9 -7 -15 -8
-15 -2 0 5 7 12 15 16 9 3 12 12 8 22 -5 13 -2 15 17 9 15 -5 20 -3 16 3 -6
10 10 26 25 27 5 0 119 75 129 85 3 3 34 27 69 54 217 167 416 443 514 711 80
219 118 480 97 678 -37 355 -153 651 -350 892 -105 128 -336 345 -369 345 -5
0 -11 4 -13 8 -1 4 -25 21 -53 38 -140 84 -341 155 -540 189 -90 15 -353 26
-440 18z m-775 -2997 c19 -4 15 -19 -5 -22 -9 -1 -19 4 -22 12 -3 8 -9 11 -14
8 -5 -3 -9 0 -9 6 0 8 7 9 18 5 9 -4 24 -8 32 -9z m100 -54 c0 -4 -9 -8 -20
-9 -11 -1 -20 2 -20 5 0 4 9 8 20 9 11 1 20 -2 20 -5z m70 -2 c0 -5 -4 -10
-10 -10 -5 0 -10 5 -10 10 0 6 5 10 10 10 6 0 10 -4 10 -10z m-55 -19 c-3 -6
-11 -11 -16 -11 -5 0 -4 6 3 14 14 16 24 13 13 -3z m-25 -22 c12 -8 10 -9 -9
-4 -13 4 -21 3 -18 -2 3 -5 1 -15 -4 -23 -7 -11 -8 -8 -5 10 3 14 5 26 5 28 2
5 17 1 31 -9z m44 3 c3 -5 -1 -9 -9 -9 -8 0 -12 4 -9 9 3 4 7 8 9 8 2 0 6 -4
9 -8z m76 4 c0 -2 -7 -7 -16 -10 -8 -3 -12 -2 -9 4 6 10 25 14 25 6z m-359
-36 c-18 -15 -19 -20 -7 -20 9 0 16 -6 16 -12 0 -9 3 -8 10 2 12 19 22 8 25
-27 2 -22 -2 -29 -16 -29 -9 0 -15 4 -13 8 7 11 -16 49 -26 43 -5 -3 -12 0
-15 5 -8 13 22 50 39 50 6 -1 0 -10 -13 -20z m1759 16 c0 -3 -4 -8 -10 -11 -5
-3 -10 -1 -10 4 0 6 5 11 10 11 6 0 10 -2 10 -4z m-1527 -21 c-3 -9 -8 -14
-10 -11 -3 3 -2 9 2 15 9 16 15 13 8 -4z m1527 -10 c-6 -8 -8 -20 -4 -27 5
-10 4 -10 -6 -1 -11 10 -11 15 0 28 7 8 15 15 17 15 3 0 0 -7 -7 -15z m71 -12
c-12 -20 -14 -14 -5 12 4 9 9 14 11 11 3 -2 0 -13 -6 -23z m-1517 -9 c3 -8 2
-12 -4 -9 -6 3 -10 10 -10 16 0 14 7 11 14 -7z m-34 2 c0 -2 -8 -10 -17 -17
-16 -13 -17 -12 -4 4 13 16 21 21 21 13z m1515 -24 c-3 -3 -11 0 -18 7 -9 10
-8 11 6 5 10 -3 15 -9 12 -12z m-1598 -17 c0 -8 -4 -15 -9 -15 -4 0 -8 7 -8
15 0 8 4 15 8 15 5 0 9 -7 9 -15z m1458 -3 c-3 -3 -11 0 -18 7 -9 10 -8 11 6
5 10 -3 15 -9 12 -12z m105 14 c0 -2 -7 -7 -16 -10 -8 -3 -12 -2 -9 4 6 10 25
14 25 6z m-1608 -28 c-7 -7 -12 -8 -12 -2 0 14 12 26 19 19 2 -3 -1 -11 -7
-17z m1703 1 c-4 -5 -12 -9 -18 -8 -9 0 -8 2 1 6 6 2 9 10 6 15 -4 7 -2 8 5 4
6 -4 9 -12 6 -17z m-1499 -1 c3 -4 -1 -5 -10 -4 -8 1 -18 5 -22 8 -3 4 1 5 10
4 8 -1 18 -5 22 -8z m1460 0 c4 -7 4 -10 -1 -6 -4 4 -15 2 -24 -5 -14 -11 -14
-10 -2 6 16 20 18 21 27 5z m-1579 -14 c-8 -8 -48 -13 -43 -6 2 4 14 8 26 9
12 1 20 0 17 -3z m-185 -26 c-9 -9 -9 -15 1 -27 10 -14 10 -14 -4 -4 -9 7 -18
10 -21 7 -3 -2 -8 2 -11 10 -4 10 -1 13 7 10 8 -3 17 -1 21 5 3 6 9 11 13 11
3 0 1 -5 -6 -12z m288 2 c0 -5 -5 -10 -11 -10 -5 0 -7 5 -4 10 3 6 8 10 11 10
2 0 4 -4 4 -10z m1455 -8 c-3 -3 -11 0 -18 7 -9 10 -8 11 6 5 10 -3 15 -9 12
-12z m-1282 -7 c-3 -9 -8 -14 -10 -11 -3 3 -2 9 2 15 9 16 15 13 8 -4z m1327
5 c0 -5 -7 -7 -15 -4 -8 4 -15 8 -15 10 0 2 7 4 15 4 8 0 15 -4 15 -10z
m-1560 -25 c14 -19 14 -19 -2 -6 -10 7 -18 18 -18 24 0 6 1 8 3 6 1 -2 9 -13
17 -24z m150 19 c0 -8 -19 -13 -24 -6 -3 5 1 9 9 9 8 0 15 -2 15 -3z m1200 0
c0 -8 -19 -13 -24 -6 -3 5 1 9 9 9 8 0 15 -2 15 -3z m90 -8 c-7 -7 -13 -7 -20
0 -6 6 -3 10 10 10 13 0 16 -4 10 -10z m40 4 c0 -5 -5 -10 -11 -10 -5 0 -7 5
-4 10 3 6 8 10 11 10 2 0 4 -4 4 -10z m50 -53 c0 -4 4 -6 10 -2 5 3 7 13 4 23
-4 13 -3 12 7 -2 10 -16 10 -21 -1 -24 -10 -4 -9 -6 1 -14 11 -8 11 -9 -1 -5
-8 2 -23 19 -33 38 -13 24 -14 28 -3 15 9 -11 16 -24 16 -29z m-1575 14 c-8
-14 -25 -14 -25 0 0 5 5 7 10 4 6 -3 10 -1 10 6 0 7 3 10 6 6 3 -3 3 -10 -1
-16z m1497 7 c-16 -16 -15 -31 1 -22 6 4 8 3 4 -1 -15 -17 -36 -14 -29 3 5 14
3 15 -9 5 -13 -10 -16 -10 -16 1 0 8 8 13 18 11 10 -2 21 0 24 6 4 5 9 9 13 9
3 0 1 -5 -6 -12z m-1640 -42 c-2 -9 1 -16 7 -16 10 0 9 -25 -1 -36 -12 -12
-30 7 -19 20 12 14 -21 71 -34 59 -4 -5 -5 -2 -1 5 11 18 52 -10 48 -32z
m1680 12 c-6 -6 -12 -6 -17 3 -5 8 -4 10 3 5 7 -4 12 0 13 11 0 12 2 13 6 5 3
-8 1 -18 -5 -24z m-317 13 c3 -5 2 -12 -3 -15 -5 -3 -9 1 -9 9 0 17 3 19 12 6z
m-1190 -19 c-3 -3 -11 0 -18 7 -9 10 -8 11 6 5 10 -3 15 -9 12 -12z m141 -11
c-11 -12 -13 -21 -6 -24 6 -4 6 -5 -1 -3 -7 1 -13 10 -15 19 -1 9 2 15 6 12 5
-3 11 -1 15 5 3 5 9 10 12 10 3 0 -2 -9 -11 -19z m-81 -1 c3 -6 -1 -7 -9 -4
-18 7 -21 14 -7 14 6 0 13 -4 16 -10z m1159 2 c3 -5 -1 -9 -9 -9 -8 0 -12 4
-9 9 3 4 7 8 9 8 2 0 6 -4 9 -8z m200 -4 c-3 -4 -9 -8 -15 -8 -5 0 -9 4 -9 8
0 5 7 9 15 9 8 0 12 -4 9 -9z m-1245 -11 c8 -10 7 -14 -2 -14 -8 0 -14 6 -14
14 0 7 1 13 2 13 2 0 8 -6 14 -13z m-69 -1 c0 -2 -7 -6 -15 -10 -8 -3 -15 -1
-15 4 0 6 7 10 15 10 8 0 15 -2 15 -4z m187 -18 c2 -17 0 -19 -7 -8 -5 8 -6
18 -4 22 8 12 10 10 11 -14z m37 13 c3 -5 -2 -15 -12 -22 -15 -12 -16 -12 -5
2 7 9 10 19 6 22 -3 4 -4 7 0 7 3 0 8 -4 11 -9z m106 -1 c0 -5 -2 -10 -4 -10
-3 0 -8 5 -11 10 -3 6 -1 10 4 10 6 0 11 -4 11 -10z m35 0 c3 -5 1 -10 -4 -10
-6 0 -11 5 -11 10 0 6 2 10 4 10 3 0 8 -4 11 -10z m45 0 c0 -5 -5 -10 -11 -10
-5 0 -7 5 -4 10 3 6 8 10 11 10 2 0 4 -4 4 -10z m84 2 c3 -5 -1 -9 -9 -9 -8 0
-12 4 -9 9 3 4 7 8 9 8 2 0 6 -4 9 -8z m390 0 c2 -4 -5 -9 -17 -9 -17 -2 -19
0 -7 7 18 12 18 12 24 2z m-929 -21 c-3 -6 -11 -11 -16 -11 -5 0 -4 6 3 14 14
16 24 13 13 -3z m1172 4 c0 -8 -4 -12 -9 -9 -5 3 -6 10 -3 15 9 13 12 11 12
-6z m-1129 -9 c-7 -8 -15 -12 -17 -11 -5 6 10 25 20 25 5 0 4 -6 -3 -14z m143
-3 c13 -17 13 -17 -6 -3 -11 8 -22 16 -24 17 -2 2 0 3 6 3 6 0 17 -8 24 -17z
m469 13 c0 -3 -4 -8 -10 -11 -5 -3 -10 -1 -10 4 0 6 5 11 10 11 6 0 10 -2 10
-4z m120 -6 c0 -5 -2 -10 -4 -10 -3 0 -8 5 -11 10 -3 6 -1 10 4 10 6 0 11 -4
11 -10z m300 -5 c0 -2 -9 -3 -19 -2 -11 0 -18 5 -15 9 4 6 34 0 34 -7z m60 9
c0 -8 -19 -13 -24 -6 -3 5 1 9 9 9 8 0 15 -2 15 -3z m71 -27 c-10 -9 -11 -8
-5 6 3 10 9 15 12 12 3 -3 0 -11 -7 -18z m-1131 3 c-18 -12 -30 -13 -30 -2 0
4 10 9 22 9 18 2 20 0 8 -7z m440 2 c0 -5 -7 -9 -15 -9 -8 0 -12 4 -9 9 3 4 9
8 15 8 5 0 9 -4 9 -8z m85 -2 c3 -6 -1 -7 -9 -4 -18 7 -21 14 -7 14 6 0 13 -4
16 -10z m319 2 c2 -4 -4 -8 -14 -8 -10 0 -16 4 -14 8 3 4 9 8 14 8 5 0 11 -4
14 -8z m-1080 -17 c-7 -16 -24 -21 -24 -6 0 8 7 13 27 20 1 1 0 -6 -3 -14z
m336 1 c0 -8 -11 -13 -26 -13 -17 0 -22 2 -13 8 7 4 17 5 21 3 4 -3 8 0 8 5 0
6 2 11 5 11 3 0 5 -6 5 -14z m194 -1 c-4 -8 -13 -15 -22 -15 -13 0 -12 3 4 15
24 18 25 18 18 0z m69 0 c9 2 17 -1 17 -6 0 -6 -6 -9 -12 -8 -28 3 -39 -1 -32
-13 4 -7 3 -10 -1 -5 -13 12 -14 48 -1 38 6 -5 19 -7 29 -6z m214 2 c0 -7 -9
-14 -20 -14 -19 -2 -19 -2 -1 12 11 8 19 15 20 15 0 0 1 -6 1 -13z m324 -15
c-6 -2 -8 -9 -4 -15 3 -7 2 -9 -2 -4 -5 4 -9 16 -10 27 -1 16 1 17 13 8 9 -8
10 -14 3 -16z m75 -7 c-3 -9 -10 -13 -16 -10 -5 3 -10 2 -10 -4 0 -17 22 -24
31 -10 6 11 11 10 26 -3 13 -12 23 -14 33 -8 8 5 11 10 5 10 -5 0 -3 5 7 10
18 11 48 4 48 -11 0 -5 5 -9 11 -9 5 0 7 5 4 10 -14 23 5 7 28 -24 l26 -33
-25 3 c-13 1 -24 -3 -24 -9 0 -6 -7 -2 -16 9 -8 10 -13 14 -10 7 4 -6 1 -23
-5 -37 -10 -20 -15 -23 -26 -15 -20 17 -16 34 5 18 9 -7 14 -9 10 -5 -4 5 -3
15 2 21 7 9 6 16 -4 24 -10 8 -16 9 -21 1 -3 -6 -11 -7 -17 -4 -7 5 -8 2 -3
-6 6 -9 4 -11 -6 -5 -12 8 -12 6 0 -8 12 -15 11 -20 -5 -38 -16 -17 -19 -18
-27 -4 -4 8 -12 13 -16 10 -13 -7 -5 55 8 68 17 17 13 31 -5 17 -12 -11 -18
-11 -31 2 -16 17 -9 43 9 32 7 -5 9 1 5 16 -4 16 -3 20 5 12 6 -6 8 -18 4 -27z
m36 13 c-5 -21 -4 -22 11 -9 11 9 17 10 17 2 0 -6 -5 -11 -11 -11 -5 0 -7 -6
-3 -12 4 -7 -1 -5 -11 4 -10 9 -15 23 -12 32 9 24 16 19 9 -6z m-858 -3 c-5
-11 -2 -14 12 -9 16 6 17 5 7 -7 -15 -15 -40 2 -29 20 10 16 16 13 10 -4z m43
-7 c-3 -8 -6 -5 -6 6 -1 11 2 17 5 13 3 -3 4 -12 1 -19z m277 6 c3 -8 2 -12
-4 -9 -6 3 -10 10 -10 16 0 14 7 11 14 -7z m36 10 c0 -8 -19 -13 -24 -6 -3 5
1 9 9 9 8 0 15 -2 15 -3z m127 -17 c-2 -6 -10 -12 -18 -15 -11 -3 -11 -2 1 7
14 10 7 16 -13 12 -5 -1 -6 3 -2 8 7 13 37 2 32 -12z m447 15 c2 -4 -4 -8 -14
-8 -10 0 -16 4 -14 8 3 4 9 8 14 8 5 0 11 -4 14 -8z m-274 -17 c0 -2 -6 -5
-13 -8 -8 -3 -14 1 -14 8 0 7 6 11 14 8 7 -3 13 -6 13 -8z m310 5 c0 -5 -4
-10 -10 -10 -5 0 -10 5 -10 10 0 6 5 10 10 10 6 0 10 -4 10 -10z m-795 -60
c-4 -6 -11 -8 -16 -5 -5 4 -9 1 -9 -4 0 -14 27 -14 35 -1 12 19 37 11 30 -9
-4 -14 -1 -19 9 -17 20 3 33 16 17 16 -8 0 -10 7 -6 20 5 16 3 19 -12 14 -14
-4 -15 -4 -4 4 7 5 18 16 23 23 8 11 9 10 4 -4 -7 -21 29 -61 46 -51 8 5 5 10
-8 16 -18 8 -18 8 1 5 11 -2 19 -9 18 -15 -2 -7 4 -12 13 -12 8 0 13 4 9 9 -3
5 7 9 22 9 45 -1 55 1 48 11 -3 5 -2 12 3 15 4 2 8 -4 9 -14 1 -11 -7 -22 -18
-25 -11 -4 -17 -11 -13 -16 3 -6 12 -5 22 3 13 11 14 11 8 -1 -6 -9 -5 -12 5
-9 8 3 13 13 11 23 -3 15 0 14 20 -5 13 -11 23 -27 23 -33 0 -7 8 -11 18 -11
9 1 14 -3 11 -8 -3 -5 -12 -7 -20 -4 -7 3 -18 -2 -23 -12 -5 -9 -13 -13 -17
-9 -5 5 -2 12 6 17 9 6 10 10 3 10 -6 0 -15 -5 -18 -11 -5 -7 -15 -5 -31 6
-23 15 -30 10 -25 -17 0 -4 -14 1 -32 12 -37 23 -51 25 -41 8 4 -7 3 -10 -1
-5 -5 4 -19 0 -33 -9 -13 -9 -22 -12 -19 -6 4 5 -4 19 -17 31 -19 18 -25 19
-29 8 -3 -8 -1 -19 5 -25 17 -17 -6 -21 -32 -5 -14 8 -17 12 -8 9 12 -4 15 -1
11 11 -4 10 -2 14 4 10 6 -4 14 0 17 9 3 8 2 12 -4 9 -5 -3 -19 -1 -31 6 -17
9 -20 8 -14 -2 6 -8 4 -10 -5 -4 -8 5 -11 4 -6 -3 4 -6 14 -8 24 -5 13 5 14 3
6 -6 -6 -7 -20 -14 -30 -15 -11 -2 -18 -11 -17 -21 1 -14 -3 -13 -23 6 -13 12
-21 26 -17 32 3 6 1 7 -6 3 -9 -6 -9 -11 -1 -21 9 -11 5 -17 -19 -30 -20 -10
-31 -12 -31 -4 0 6 9 13 21 16 12 3 18 11 15 19 -7 18 36 46 58 38 11 -4 15
-2 13 7 -2 8 -2 10 1 5 2 -4 8 -3 12 4 5 8 2 19 -6 28 -8 8 -13 17 -10 20 3 2
15 -6 27 -19 14 -17 19 -19 15 -6 -16 47 -16 50 -1 24 9 -15 13 -32 10 -37z
m198 43 c-4 -11 -3 -14 5 -9 8 5 10 2 5 -10 -5 -15 -7 -15 -15 0 -5 9 -6 21
-3 26 10 16 15 12 8 -7z m317 7 c0 -5 -2 -10 -4 -10 -3 0 -8 5 -11 10 -3 6 -1
10 4 10 6 0 11 -4 11 -10z m-944 -19 c2 -8 1 -8 -3 0 -4 8 -7 8 -13 -1 -5 -9
-9 -8 -13 3 -4 10 0 14 11 13 9 -2 17 -8 18 -15z m455 -8 c-12 -20 -14 -14 -5
12 4 9 9 14 11 11 3 -2 0 -13 -6 -23z m118 11 c4 3 8 -1 8 -9 0 -8 -4 -15 -9
-15 -4 0 -8 4 -8 9 0 5 -12 8 -27 5 -20 -3 -24 -2 -13 5 8 5 18 7 22 5 4 -3 8
1 9 8 0 10 2 10 6 0 2 -6 8 -10 12 -8z m256 -2 c-3 -3 -11 0 -18 7 -9 10 -8
11 6 5 10 -3 15 -9 12 -12z m-795 -4 c0 19 14 14 29 -10 13 -21 13 -22 -2 -9
-13 10 -17 10 -17 1 0 -10 -3 -10 -15 0 -8 7 -15 18 -15 24 0 6 5 4 10 -4 6
-10 10 -11 10 -2z m680 2 c8 -5 11 -10 5 -10 -5 0 -17 5 -25 10 -8 5 -10 10
-5 10 6 0 17 -5 25 -10z m50 6 c0 -2 -7 -7 -16 -10 -8 -3 -12 -2 -9 4 6 10 25
14 25 6z m160 -6 c0 -5 -4 -10 -10 -10 -5 0 -10 5 -10 10 0 6 5 10 10 10 6 0
10 -4 10 -10z m-225 -21 c11 -16 1 -19 -13 -3 -7 8 -8 14 -3 14 5 0 13 -5 16
-11z m-587 -29 c-12 -19 -28 -27 -28 -14 0 6 30 33 38 34 1 0 -3 -9 -10 -20z
m76 -2 c-3 -5 -1 -15 5 -22 9 -10 8 -15 -3 -19 -9 -4 -18 -2 -21 3 -4 6 0 10
7 10 8 0 9 3 3 8 -16 11 -15 29 0 29 8 0 12 -4 9 -9z m984 -4 c-1 -5 -9 -9
-16 -10 -10 -2 -11 1 -1 12 12 14 24 13 17 -2z m-908 -25 c0 -15 -18 -19 -23
-6 -3 8 1 14 9 14 8 0 14 -4 14 -8z m603 -2 c3 -7 -3 -13 -13 -13 -10 0 -16 6
-13 13 3 7 9 13 13 13 4 0 10 -6 13 -13z m147 1 c0 -19 -3 -23 -12 -20 -6 1
-16 -3 -24 -9 -8 -6 -14 -8 -14 -5 0 4 -8 2 -19 -3 -13 -7 -24 -6 -36 3 -18
13 -18 14 1 24 11 6 25 7 35 1 11 -6 21 -4 28 5 12 14 41 17 41 4z"/>
<path d="M995 621 c-3 -5 -2 -12 3 -15 5 -3 9 1 9 9 0 17 -3 19 -12 6z"/>
<path d="M2425 311 c-4 -14 -13 -18 -30 -15 -36 6 -57 -44 -27 -68 10 -8 13
-9 9 -1 -4 6 -3 14 3 18 5 3 10 1 10 -6 0 -7 3 -9 6 -6 4 4 2 13 -5 20 -9 11
-8 17 4 27 8 7 15 9 15 5 0 -4 6 -3 13 4 10 8 17 7 25 -1 7 -7 12 -9 12 -5 0
3 11 2 25 -3 16 -6 25 -6 25 0 0 6 -5 10 -11 10 -5 0 -7 4 -4 10 3 5 0 7 -8 4
-8 -3 -20 2 -27 11 -17 20 -27 19 -35 -4z m35 -11 c0 -5 -2 -10 -4 -10 -3 0
-8 5 -11 10 -3 6 -1 10 4 10 6 0 11 -4 11 -10z m-79 -23 c-6 -8 -8 -16 -5 -19
3 -3 1 -9 -4 -12 -6 -3 -9 0 -8 6 2 16 15 38 23 38 3 0 0 -6 -6 -13z"/>
<path d="M1768 278 c10 -12 10 -17 -1 -27 -8 -6 -18 -7 -23 -3 -5 4 0 -3 10
-15 21 -26 27 -28 24 -12 -2 6 3 14 11 17 10 3 11 0 5 -9 -6 -12 -5 -12 8 -1
13 11 21 11 39 2 12 -7 19 -8 15 -2 -5 9 32 10 54 2 3 -2 8 -2 13 -1 4 0 7 -4
7 -9 0 -6 6 -5 14 2 8 7 11 17 8 22 -3 5 3 6 14 2 16 -6 17 -5 6 6 -11 11 -16
10 -27 -5 -8 -12 -15 -14 -20 -7 -3 5 -10 8 -15 5 -5 -3 -11 -1 -15 5 -3 5
-12 10 -18 10 -7 0 -6 -4 3 -10 9 -6 10 -10 3 -10 -20 0 -24 18 -6 29 10 6 14
10 8 10 -5 0 -21 -6 -35 -14 -31 -18 -43 -19 -34 -2 4 6 3 9 -1 4 -5 -4 -20 0
-34 10 -21 13 -24 14 -13 1z m22 -22 c0 -2 -8 -10 -17 -17 -16 -13 -17 -12 -4
4 13 16 21 21 21 13z"/>
<path d="M1705 270 c-3 -6 1 -7 9 -4 18 7 21 14 7 14 -6 0 -13 -4 -16 -10z"/>
<path d="M1615 250 c-10 -17 5 -33 19 -21 7 6 16 8 19 4 4 -3 7 -3 7 0 0 13
-39 27 -45 17z"/>
<path d="M2239 223 c-13 -16 -12 -17 4 -4 16 13 21 21 13 21 -2 0 -10 -8 -17
-17z"/>
<path d="M2186 221 c-4 -5 -2 -12 3 -15 5 -4 12 -2 15 3 4 5 2 12 -3 15 -5 4
-12 2 -15 -3z"/>
<path d="M933 855 c0 -8 4 -12 9 -9 5 3 6 10 3 15 -9 13 -12 11 -12 -6z"/>
<path d="M1030 861 c0 -6 4 -12 8 -15 5 -3 9 1 9 9 0 8 -4 15 -9 15 -4 0 -8
-4 -8 -9z"/>
<path d="M1020 832 c0 -6 -8 -9 -17 -6 -15 5 -16 4 -3 -5 16 -11 40 3 27 16
-4 3 -7 1 -7 -5z"/>
<path d="M953 813 c0 -9 4 -10 14 -2 7 6 13 12 13 14 0 1 -6 2 -13 2 -8 0 -14
-6 -14 -14z"/>
<path d="M1036 813 c-6 -14 -5 -15 5 -6 7 7 10 15 7 18 -3 3 -9 -2 -12 -12z"/>
<path d="M997 799 c7 -7 15 -10 18 -7 3 3 -2 9 -12 12 -14 6 -15 5 -6 -5z"/>
<path d="M1152 797 c14 -10 14 -13 -7 -29 -13 -10 -32 -18 -43 -18 -15 0 -19
-5 -15 -20 5 -18 -3 -24 -27 -22 -3 0 -6 -8 -6 -19 0 -11 5 -17 11 -15 5 2 9
10 7 17 -3 11 -1 11 8 3 12 -12 50 -7 50 7 0 4 -5 11 -12 15 -7 5 -8 2 -3 -7
5 -8 4 -10 0 -6 -14 12 -14 36 0 31 7 -3 15 2 19 11 3 9 10 14 15 11 5 -3 16
5 25 19 9 14 15 25 14 26 -2 0 -14 2 -28 3 -20 3 -22 1 -8 -7z"/>
<path d="M2936 798 c5 -7 2 -9 -7 -6 -11 4 -15 -2 -16 -21 -1 -14 1 -19 4 -11
3 8 12 19 19 23 17 9 18 27 3 27 -5 0 -7 -5 -3 -12z"/>
<path d="M2993 803 c4 -3 -1 -12 -11 -20 -15 -13 -15 -13 6 -3 19 9 23 30 5
30 -4 0 -3 -3 0 -7z"/>
<path d="M974 792 c3 -5 0 -13 -6 -15 -9 -4 -10 -6 -1 -6 17 -1 25 16 12 25
-7 4 -9 3 -5 -4z"/>
<path d="M917 783 c-9 -8 12 -33 27 -33 6 0 3 5 -7 11 -9 6 -15 14 -12 20 7
10 2 12 -8 2z"/>
<path d="M2881 781 c-20 -13 -23 -41 -4 -48 12 -5 12 -8 1 -15 -10 -8 -9 -9 4
-5 12 4 16 1 13 -14 -3 -12 0 -17 7 -13 7 5 8 2 3 -6 -6 -9 -4 -11 5 -5 9 6
11 4 5 -4 -5 -9 -10 -10 -18 -2 -6 6 -16 11 -22 11 -5 -1 0 -9 12 -19 12 -10
19 -21 16 -25 -3 -3 1 -8 10 -12 15 -5 15 -8 2 -21 -19 -19 -19 -34 0 -27 8 4
12 11 8 17 -3 5 -1 7 4 4 6 -4 14 0 17 9 3 8 11 12 17 9 6 -5 4 -12 -8 -21
-16 -13 -16 -14 0 -8 10 4 17 1 17 -6 0 -6 -4 -9 -9 -6 -12 8 -33 -19 -23 -29
4 -5 0 -4 -8 0 -13 8 -13 7 0 -10 13 -17 13 -18 0 -10 -13 8 -13 7 0 -10 8
-10 10 -16 4 -12 -7 4 -10 -3 -8 -21 2 -25 2 -26 -11 -9 -7 11 -12 27 -10 38
4 18 -5 23 -30 20 -5 -1 -2 5 8 12 27 22 20 29 -12 12 -34 -17 -55 -42 -26
-32 24 10 47 -11 40 -37 -5 -17 -4 -18 4 -6 7 9 11 10 11 3 0 -20 -18 -24 -28
-7 -12 21 -33 9 -25 -13 5 -12 3 -14 -7 -8 -8 5 -11 4 -6 -3 3 -6 2 -13 -4
-17 -6 -4 -8 -11 -4 -16 3 -6 -5 -8 -20 -5 -34 6 -75 -26 -59 -46 8 -9 9 -18
1 -28 -8 -12 -9 -12 -4 3 4 12 2 16 -6 11 -7 -5 -8 -3 -3 6 5 8 4 11 -3 6 -6
-4 -9 -14 -6 -24 5 -14 3 -14 -10 2 -14 18 -20 15 -17 -6 0 -4 -6 -5 -15 -1
-13 5 -13 7 -2 14 9 6 9 9 1 9 -6 0 -15 -5 -18 -11 -5 -7 -14 -4 -26 7 -11 9
-22 14 -27 9 -4 -4 -2 -10 4 -12 6 -2 20 -11 30 -19 10 -9 13 -12 5 -8 -34 17
-79 12 -102 -12 -19 -20 -20 -24 -6 -30 9 -3 21 -3 27 1 5 3 10 3 11 -2 4 -42
6 -54 11 -58 3 -3 8 1 12 10 3 9 2 13 -4 10 -6 -3 -10 -2 -10 4 0 21 19 20 34
-1 9 -12 16 -18 16 -12 0 5 -5 15 -12 22 -9 9 -8 12 5 12 9 0 17 -5 17 -11 0
-8 6 -7 17 2 15 12 16 12 10 -6 -7 -20 -7 -20 8 -1 19 25 19 35 0 42 -14 6
-13 8 2 20 22 16 41 18 26 3 -12 -12 -6 -42 7 -34 4 3 11 -2 14 -11 5 -12 2
-15 -11 -10 -10 4 -14 4 -10 0 4 -4 -1 -12 -10 -19 -13 -9 -13 -14 -3 -20 9
-6 11 -4 5 5 -6 10 -4 12 9 7 9 -4 15 -3 12 2 -3 5 1 12 9 15 14 5 14 9 0 35
-8 17 -11 32 -6 36 5 3 12 -4 16 -15 8 -25 17 -25 33 0 15 24 28 26 36 4 4
-11 2 -15 -8 -11 -14 6 -32 -21 -21 -31 3 -3 5 -1 5 5 0 6 9 13 20 16 14 4 18
10 14 24 -6 15 -4 16 7 6 7 -7 17 -13 23 -13 5 0 1 6 -10 14 -18 14 -18 16 -3
31 11 12 19 13 23 6 4 -6 2 -11 -3 -11 -6 0 -11 -5 -11 -11 0 -8 5 -7 15 1 14
12 15 9 10 -18 -3 -18 -2 -32 3 -32 11 0 10 51 -2 68 -13 22 3 27 18 6 8 -10
18 -16 22 -11 4 4 2 7 -5 7 -7 0 -9 5 -6 10 4 6 11 8 16 5 14 -9 30 5 22 18
-4 7 -8 19 -8 27 0 8 -8 14 -17 14 -19 -2 -24 11 -10 20 14 8 52 -23 46 -38
-7 -18 12 -30 22 -15 5 8 3 9 -6 4 -8 -5 -11 -3 -8 6 3 8 12 13 19 11 8 -2 11
0 7 3 -4 4 -3 17 3 29 9 19 9 19 -8 -2 -15 -18 -21 -20 -31 -10 -18 18 -14 32
6 17 9 -7 14 -9 9 -4 -4 4 9 23 29 41 20 18 33 38 29 44 -5 8 -11 8 -21 -1 -9
-8 -14 -8 -14 -1 0 6 8 16 18 21 11 7 13 10 3 11 -11 0 -11 3 -1 15 16 20 3
37 -23 29 -19 -6 -20 -5 -9 9 8 9 21 13 30 10 13 -4 12 -2 -3 11 -20 17 -20
17 4 10 16 -4 21 -3 17 5 -4 6 -14 11 -22 11 -8 0 -14 4 -14 9 0 14 26 32 35
23 5 -4 5 -2 1 5 -3 7 1 13 11 15 15 3 14 5 -5 10 -12 3 -20 3 -18 -1 3 -4 -4
-15 -15 -25 -12 -9 -18 -24 -15 -32 6 -16 -3 -18 -24 -4 -13 9 -13 12 3 21 23
14 22 28 -7 54 -22 20 -25 21 -29 5 -2 -9 -11 -17 -20 -17 -12 0 -15 8 -13 29
2 15 3 28 2 28 0 0 -7 -4 -15 -9z m4 -20 c3 -5 2 -12 -3 -15 -5 -3 -9 1 -9 9
0 17 3 19 12 6z m69 -27 c20 -8 21 -30 1 -38 -22 -8 -18 -25 10 -38 42 -19 9
-40 -47 -29 -8 1 -4 28 5 37 4 4 1 14 -5 22 -14 17 -20 44 -8 37 5 -3 11 -1
15 5 7 12 8 12 29 4z m56 -132 c0 -4 -5 -13 -12 -20 -7 -7 -8 -12 -4 -12 5 0
3 -7 -4 -15 -16 -19 -3 -40 16 -24 10 8 14 8 14 0 0 -6 -4 -11 -10 -11 -5 0
-18 -10 -30 -22 -21 -23 -56 -35 -43 -15 5 7 8 28 8 47 0 24 5 35 15 35 8 0
14 8 14 18 -1 9 2 14 7 11 5 -3 9 0 9 5 0 6 5 11 10 11 6 0 10 -4 10 -8z
m-109 -146 c-6 -7 -9 -22 -5 -32 3 -11 2 -15 -3 -9 -11 15 -39 12 -35 -4 1 -7
-2 -10 -9 -5 -8 4 -9 3 -5 -5 6 -9 11 -9 22 0 11 9 18 8 30 -1 8 -8 14 -9 13
-4 -3 20 2 34 12 34 6 0 9 -6 6 -14 -3 -7 0 -19 6 -25 9 -9 2 -10 -27 -7 -32
5 -43 1 -67 -24 -16 -15 -30 -27 -30 -24 -6 18 -2 31 11 41 9 8 11 12 3 13 -6
0 -15 -5 -18 -10 -4 -6 -10 -8 -14 -6 -4 3 -8 -1 -8 -9 0 -8 5 -12 10 -8 5 3
4 -4 -2 -15 -6 -12 -16 -24 -22 -27 -14 -9 -27 4 -13 13 11 8 12 22 1 38 -9
15 20 39 47 39 12 0 21 3 21 6 0 15 38 47 50 43 7 -3 16 -1 20 5 3 6 9 11 12
11 3 0 0 -6 -6 -14z m-228 -141 c-17 -13 -17 -14 0 -20 9 -4 17 -11 17 -15 0
-9 -41 -6 -58 4 -7 4 -12 1 -12 -6 0 -9 -3 -9 -10 2 -9 13 -10 13 -10 0 -1
-12 -2 -12 -10 2 -7 10 -19 15 -32 13 l-22 -5 23 23 c17 16 25 18 28 9 4 -10
8 -10 20 -1 9 8 17 9 21 3 10 -14 38 -11 35 4 -2 6 4 9 12 5 13 -5 13 -7 -2
-18z"/>
<path d="M2941 722 c-1 -7 -5 -11 -10 -7 -5 3 -13 0 -17 -6 -4 -8 -3 -9 4 -5
7 4 12 2 12 -5 0 -10 3 -10 11 -2 6 6 9 17 6 25 -4 10 -6 10 -6 0z"/>
<path d="M2926 662 c-3 -4 -1 -14 5 -22 7 -12 9 -12 9 -1 0 11 3 11 15 1 8 -7
15 -8 15 -4 0 13 -38 35 -44 26z"/>
<path d="M2975 560 c-4 -6 -10 -8 -14 -6 -4 3 -8 -1 -8 -9 0 -13 4 -12 19 2
18 16 22 23 14 23 -3 0 -8 -5 -11 -10z"/>
<path d="M2970 521 c0 -7 -5 -9 -12 -5 -7 5 -8 3 -3 -5 5 -9 10 -10 18 -2 6 6
8 14 4 18 -4 3 -7 1 -7 -6z"/>
<path d="M2849 433 c-12 -16 -12 -17 2 -6 9 7 20 9 24 5 5 -4 5 -1 1 6 -9 16
-11 15 -27 -5z"/>
<path d="M2769 384 c-7 -8 -7 -14 1 -19 6 -4 9 -1 8 6 -2 7 2 13 9 14 17 0 25
12 8 12 -8 0 -20 -6 -26 -13z"/>
<path d="M2833 393 c4 -3 1 -13 -6 -22 -11 -14 -10 -14 5 -2 16 12 16 31 1 31
-4 0 -3 -3 0 -7z"/>
<path d="M2565 310 c-4 -6 -3 -10 2 -9 4 1 10 0 13 -1 18 -8 62 -5 67 4 3 6 3
8 -2 4 -4 -4 -14 -3 -21 3 -8 7 -14 7 -19 -1 -5 -8 -10 -8 -20 0 -9 8 -15 8
-20 0z"/>
<path d="M2950 771 c0 -10 19 -25 25 -20 1 2 -3 10 -11 17 -8 7 -14 8 -14 3z"/>
<path d="M2839 768 c-1 -5 -2 -14 -3 -20 -1 -7 -9 -12 -18 -12 -10 1 -15 -5
-13 -15 2 -9 4 -19 4 -23 1 -4 10 -12 21 -18 15 -8 25 -7 41 3 17 12 18 15 4
20 -8 4 -14 10 -14 14 3 10 -19 60 -22 51z m15 -60 c-1 -13 -3 -25 -3 -28 -1
-3 -8 4 -16 14 -11 14 -12 23 -4 33 15 18 26 9 23 -19z"/>
<path d="M2993 749 c-2 -23 3 -25 10 -4 4 8 3 16 -1 19 -4 3 -9 -4 -9 -15z"/>
<path d="M3040 766 c0 -2 8 -10 18 -17 15 -13 16 -12 3 4 -13 16 -21 21 -21
13z"/>
<path d="M910 720 c0 -6 7 -13 15 -16 13 -5 13 -9 3 -23 -12 -14 -11 -15 5 -2
17 13 17 16 3 26 -9 7 -13 15 -9 18 3 4 1 7 -5 7 -7 0 -12 -5 -12 -10z"/>
<path d="M958 713 c7 -3 16 -2 19 1 4 3 -2 6 -13 5 -11 0 -14 -3 -6 -6z"/>
<path d="M834 682 c4 -3 14 -7 22 -8 9 -1 13 0 10 4 -4 3 -14 7 -22 8 -9 1
-13 0 -10 -4z"/>
<path d="M3010 686 c0 -2 7 -7 16 -10 8 -3 12 -2 9 4 -6 10 -25 14 -25 6z"/>
<path d="M3070 678 c0 -4 4 -8 9 -8 6 0 12 4 15 8 3 5 -1 9 -9 9 -8 0 -15 -4
-15 -9z"/>
<path d="M3045 659 c-4 -6 -5 -12 -2 -15 2 -3 7 2 10 11 7 17 1 20 -8 4z"/>
<path d="M1042 651 c-11 -7 -10 -61 1 -61 4 0 11 0 16 0 5 0 11 8 15 18 3 9 8
22 11 28 7 13 -28 25 -43 15z m30 -15 c7 4 8 2 4 -5 -9 -13 -26 -5 -25 12 0 9
2 8 6 -1 2 -6 10 -9 15 -6z m-17 -25 c3 -5 2 -12 -3 -15 -5 -3 -9 1 -9 9 0 17
3 19 12 6z"/>
<path d="M1120 650 c-8 -5 -12 -11 -9 -14 2 -3 11 -1 19 4 8 5 12 11 9 14 -2
3 -11 1 -19 -4z"/>
<path d="M710 641 c0 -6 4 -13 10 -16 6 -3 7 1 4 9 -7 18 -14 21 -14 7z"/>
<path d="M796 638 c3 -5 10 -6 15 -3 13 9 11 12 -6 12 -8 0 -12 -4 -9 -9z"/>
<path d="M3030 620 c0 -5 5 -10 10 -10 6 0 10 5 10 10 0 6 -4 10 -10 10 -5 0
-10 -4 -10 -10z"/>
<path d="M3106 621 c-3 -4 4 -7 14 -6 27 2 33 10 10 12 -11 1 -22 -2 -24 -6z"/>
<path d="M3050 591 c0 -6 4 -13 10 -16 6 -3 7 1 4 9 -7 18 -14 21 -14 7z"/>
<path d="M910 586 c0 -2 7 -6 15 -10 8 -3 15 -1 15 4 0 6 -7 10 -15 10 -8 0
-15 -2 -15 -4z"/>
<path d="M2870 580 c0 -5 5 -10 10 -10 6 0 10 5 10 10 0 6 -4 10 -10 10 -5 0
-10 -4 -10 -10z"/>
<path d="M3033 572 c0 -12 5 -22 9 -22 11 0 10 12 -2 30 -7 12 -9 10 -7 -8z"/>
<path d="M3096 574 c-8 -20 -8 -24 2 -24 4 0 8 9 9 20 2 24 -3 26 -11 4z"/>
<path d="M3130 579 c0 -5 5 -7 10 -4 6 3 10 8 10 11 0 2 -4 4 -10 4 -5 0 -10
-5 -10 -11z"/>
<path d="M886 565 c-3 -8 -1 -15 4 -15 6 0 10 7 10 15 0 8 -2 15 -4 15 -2 0
-6 -7 -10 -15z"/>
<path d="M2916 564 c-15 -14 -14 -34 1 -34 4 0 3 3 0 7 -4 3 0 15 10 25 20 22
11 24 -11 2z"/>
<path d="M853 555 c0 -8 4 -12 9 -9 5 3 6 10 3 15 -9 13 -12 11 -12 -6z"/>
<path d="M1075 551 c-4 -13 -11 -18 -18 -14 -6 4 0 -13 14 -37 15 -24 34 -45
44 -46 23 -3 45 -24 26 -24 -10 0 -10 -4 -3 -12 6 -7 11 -16 11 -20 2 -16 14
-12 17 5 1 9 -3 17 -9 17 -5 0 -7 3 -3 7 3 4 -8 21 -25 39 -28 28 -30 35 -19
49 11 14 10 19 -7 37 l-21 20 -7 -21z m20 -11 c-3 -5 -1 -10 5 -10 6 0 8 -5 4
-11 -4 -8 -9 -7 -15 2 -7 12 -3 29 7 29 3 0 2 -4 -1 -10z"/>
<path d="M3056 542 c-2 -4 -2 -12 2 -17 10 -14 32 -17 32 -5 0 6 -7 10 -16 10
-8 0 -12 5 -9 10 3 6 4 10 1 10 -3 0 -7 -4 -10 -8z"/>
<path d="M910 519 c0 -5 5 -7 10 -4 6 3 10 8 10 11 0 2 -4 4 -10 4 -5 0 -10
-5 -10 -11z"/>
<path d="M815 500 c3 -5 8 -10 11 -10 2 0 4 5 4 10 0 6 -5 10 -11 10 -5 0 -7
-4 -4 -10z"/>
<path d="M940 495 c8 -9 9 -15 2 -15 -6 0 -14 5 -17 10 -3 6 -11 10 -18 10 -6
0 -1 -7 11 -16 12 -8 27 -12 33 -8 8 4 9 -1 5 -17 -6 -20 -5 -21 4 -7 11 18
-5 58 -24 58 -4 0 -3 -7 4 -15z"/>
<path d="M3033 490 c1 -21 10 -18 13 5 1 8 -2 15 -6 15 -5 0 -8 -9 -7 -20z"/>
<path d="M3010 470 c6 -11 12 -20 14 -20 2 0 2 9 -1 20 -3 11 -9 20 -15 20 -5
0 -4 -9 2 -20z"/>
<path d="M3090 460 c0 -5 5 -10 11 -10 5 0 7 5 4 10 -3 6 -8 10 -11 10 -2 0
-4 -4 -4 -10z"/>
<path d="M906 442 c-3 -5 1 -9 9 -9 8 0 12 4 9 9 -3 4 -7 8 -9 8 -2 0 -6 -4
-9 -8z"/>
<path d="M3000 436 c0 -8 4 -17 9 -20 5 -4 7 3 4 14 -6 23 -13 26 -13 6z"/>
<path d="M856 422 c-3 -5 1 -9 9 -9 8 0 12 4 9 9 -3 4 -7 8 -9 8 -2 0 -6 -4
-9 -8z"/>
<path d="M3035 421 c-3 -5 -2 -12 3 -15 5 -3 9 1 9 9 0 17 -3 19 -12 6z"/>
<path d="M3090 420 c0 -5 5 -10 11 -10 5 0 7 5 4 10 -3 6 -8 10 -11 10 -2 0
-4 -4 -4 -10z"/>
<path d="M889 403 c-13 -16 -12 -17 4 -4 16 13 21 21 13 21 -2 0 -10 -8 -17
-17z"/>
<path d="M990 405 c0 -8 4 -15 10 -15 5 0 7 7 4 15 -4 8 -8 15 -10 15 -2 0 -4
-7 -4 -15z"/>
<path d="M910 396 c0 -2 8 -10 18 -17 15 -13 16 -12 3 4 -13 16 -21 21 -21 13z"/>
<path d="M2673 378 c-2 -5 1 -9 6 -9 35 -4 45 -3 48 7 4 13 -46 14 -54 2z"/>
<path d="M2973 376 c-3 -5 -1 -6 5 -2 7 4 12 1 12 -8 0 -9 5 -16 11 -16 5 0 7
5 3 11 -3 6 0 15 7 20 10 6 7 8 -9 6 -13 -1 -26 -6 -29 -11z"/>
<path d="M1200 377 c0 -2 6 -10 14 -16 11 -9 16 -9 22 1 4 7 4 10 -1 6 -4 -4
-14 -3 -22 3 -7 6 -13 9 -13 6z"/>
<path d="M3033 365 c0 -8 4 -12 9 -9 5 3 6 10 3 15 -9 13 -12 11 -12 -6z"/>
<path d="M870 366 c0 -2 7 -7 16 -10 8 -3 12 -2 9 4 -6 10 -25 14 -25 6z"/>
<path d="M961 356 c-9 -11 -9 -16 1 -22 7 -4 10 -4 6 1 -4 4 -3 14 3 22 6 7 9
13 6 13 -2 0 -10 -6 -16 -14z"/>
<path d="M1255 360 c3 -5 8 -10 11 -10 2 0 4 5 4 10 0 6 -5 10 -11 10 -5 0 -7
-4 -4 -10z"/>
<path d="M2950 365 c0 -5 5 -17 10 -25 5 -8 10 -10 10 -5 0 6 -5 17 -10 25 -5
8 -10 11 -10 5z"/>
<path d="M2925 340 c-8 -13 3 -30 18 -29 9 0 9 2 0 6 -7 2 -13 9 -13 14 0 6 5
7 12 3 7 -4 8 -3 4 4 -9 15 -13 15 -21 2z"/>
<path d="M1036 325 c10 -8 23 -15 28 -15 6 0 1 7 -10 15 -10 8 -23 15 -28 15
-6 0 -1 -7 10 -15z"/>
<path d="M2996 327 c3 -10 9 -15 12 -12 3 3 0 11 -7 18 -10 9 -11 8 -5 -6z"/>
<path d="M1344 318 c-4 -6 -3 -8 4 -4 6 3 13 2 17 -4 8 -13 25 -3 25 13 0 7
-4 6 -10 -3 -6 -10 -10 -11 -10 -2 0 15 -16 16 -26 0z"/>
<path d="M1420 318 c0 -4 0 -11 0 -15 0 -11 23 -11 37 0 16 11 35 -1 27 -16
-4 -7 -4 -9 1 -5 4 4 13 3 20 -2 8 -7 11 -4 10 11 -2 28 -31 45 -51 29 -7 -7
-14 -8 -14 -3 0 5 -7 10 -15 10 -8 0 -15 -4 -15 -9z"/>
<path d="M1089 301 c11 -7 10 -11 -5 -20 -11 -6 -14 -11 -8 -11 6 0 17 6 23
13 11 14 5 27 -13 27 -6 0 -5 -4 3 -9z"/>
<path d="M1124 299 c-5 -8 -3 -9 6 -4 10 6 12 4 7 -8 -3 -9 -3 -18 1 -21 4 -3
8 4 9 14 2 23 -13 35 -23 19z"/>
<path d="M2955 289 c-4 -6 -5 -12 -2 -15 2 -3 7 2 10 11 7 17 1 20 -8 4z"/>
<path d="M2074 275 c2 -5 10 -9 17 -7 11 2 11 -1 -1 -10 -8 -7 -16 -20 -18
-28 -1 -8 7 -4 18 10 25 32 25 49 0 47 -11 -1 -18 -6 -16 -12z"/>
<path d="M2154 268 c2 -14 9 -21 17 -19 8 2 20 4 27 4 20 1 14 13 -13 25 -34
16 -35 16 -31 -10z m21 3 c3 -5 2 -12 -3 -15 -5 -3 -9 1 -9 9 0 17 3 19 12 6z"/>
<path d="M2830 280 c0 -5 5 -10 11 -10 5 0 7 5 4 10 -3 6 -8 10 -11 10 -2 0
-4 -4 -4 -10z"/>
<path d="M2919 273 c-13 -16 -12 -17 4 -4 9 7 17 15 17 17 0 8 -8 3 -21 -13z"/>
<path d="M1161 273 c-1 -17 16 -25 25 -12 4 7 3 9 -4 5 -5 -3 -13 0 -15 6 -4
9 -6 10 -6 1z"/>
<path d="M2760 271 c0 -6 4 -13 10 -16 6 -3 7 1 4 9 -7 18 -14 21 -14 7z"/>
<path d="M955 260 c3 -5 8 -10 11 -10 2 0 4 5 4 10 0 6 -5 10 -11 10 -5 0 -7
-4 -4 -10z"/>
<path d="M1206 263 c6 -4 10 -16 8 -26 -1 -9 1 -15 6 -12 13 8 5 38 -11 43 -9
2 -10 1 -3 -5z"/>
<path d="M2225 260 c-3 -6 1 -7 9 -4 18 7 21 14 7 14 -6 0 -13 -4 -16 -10z"/>
<path d="M2797 252 c-15 -16 -15 -19 -2 -19 8 0 13 3 10 5 -3 3 0 11 6 19 17
20 5 16 -14 -5z"/>
<path d="M1240 246 c0 -2 7 -7 16 -10 8 -3 12 -2 9 4 -6 10 -25 14 -25 6z"/>
<path d="M1095 231 c-3 -5 -2 -12 3 -15 5 -3 9 1 9 9 0 17 -3 19 -12 6z"/>
<path d="M2616 217 c3 -10 9 -15 12 -12 3 3 0 11 -7 18 -10 9 -11 8 -5 -6z"/>
<path d="M2670 221 c0 -6 4 -13 10 -16 6 -3 7 1 4 9 -7 18 -14 21 -14 7z"/>
<path d="M2740 226 c0 -2 8 -10 18 -17 15 -13 16 -12 3 4 -13 16 -21 21 -21
13z"/>
<path d="M1255 210 c-4 -6 -12 -7 -18 -4 -7 4 -8 3 -4 -1 13 -15 34 -14 34 1
0 17 -4 18 -12 4z"/>
<path d="M1401 204 c0 -11 3 -14 6 -6 3 7 2 16 -1 19 -3 4 -6 -2 -5 -13z"/>
<path d="M2483 212 c-7 -4 -11 -19 -8 -32 2 -13 -1 -31 -8 -39 -11 -14 -10
-14 5 -2 11 8 16 22 14 37 -3 15 1 27 12 34 9 5 13 9 7 10 -5 0 -16 -4 -22 -8z"/>
<path d="M1470 200 c0 -5 7 -7 15 -4 8 4 15 8 15 10 0 2 -7 4 -15 4 -8 0 -15
-4 -15 -10z"/>
<path d="M2556 195 c-11 -8 -15 -15 -9 -15 7 0 15 5 18 10 4 6 11 8 16 5 5 -4
9 -1 9 4 0 15 -11 13 -34 -4z"/>
<path d="M2830 199 c0 -5 5 -7 10 -4 6 3 10 8 10 11 0 2 -4 4 -10 4 -5 0 -10
-5 -10 -11z"/>
<path d="M2313 193 c-18 -7 -16 -20 2 -20 8 0 12 4 9 8 -2 4 2 10 8 12 7 3 9
5 3 5 -5 0 -16 -2 -22 -5z"/>
<path d="M2508 193 c7 -3 16 -2 19 1 4 3 -2 6 -13 5 -11 0 -14 -3 -6 -6z"/>
<path d="M1216 182 c-3 -5 1 -9 9 -9 8 0 12 4 9 9 -3 4 -7 8 -9 8 -2 0 -6 -4
-9 -8z"/>
<path d="M1435 181 c6 -10 4 -13 -6 -9 -11 4 -15 -1 -15 -17 0 -13 4 -21 8
-19 5 3 5 10 2 16 -5 7 -2 9 8 5 17 -6 19 16 3 30 -4 5 -5 2 0 -6z"/>
<path d="M1497 174 c5 -13 3 -15 -7 -9 -9 5 -11 4 -6 -3 4 -7 11 -12 17 -12
12 0 12 27 -1 35 -6 4 -7 -1 -3 -11z"/>
<path d="M1595 179 c-4 -6 -4 -13 -1 -16 3 -4 6 -1 6 6 0 7 5 9 12 5 7 -4 8
-3 4 4 -9 15 -13 15 -21 1z"/>
<path d="M2667 179 c7 -7 15 -10 18 -7 3 3 -2 9 -12 12 -14 6 -15 5 -6 -5z"/>
<path d="M2707 179 c7 -7 15 -10 18 -7 3 3 -2 9 -12 12 -14 6 -15 5 -6 -5z"/>
<path d="M2775 180 c3 -5 8 -10 11 -10 2 0 4 5 4 10 0 6 -5 10 -11 10 -5 0 -7
-4 -4 -10z"/>
<path d="M1375 170 c-4 -6 -11 -7 -17 -4 -7 4 -8 2 -4 -5 6 -9 11 -9 22 0 14
11 18 19 10 19 -3 0 -8 -5 -11 -10z"/>
<path d="M1681 175 c0 -5 4 -17 9 -25 7 -11 10 -11 10 -2 0 7 5 10 12 6 7 -4
8 -3 4 5 -4 6 -11 9 -16 6 -4 -3 -11 1 -13 7 -3 7 -6 9 -6 3z"/>
<path d="M1821 171 c-7 -5 -12 -13 -10 -18 2 -5 12 -1 22 9 18 19 12 24 -12 9z"/>
<path d="M1857 167 c-3 -8 1 -14 8 -14 7 0 11 6 8 14 -3 7 -6 13 -8 13 -2 0
-5 -6 -8 -13z"/>
<path d="M2337 165 c-4 -8 -3 -16 1 -19 4 -3 9 4 9 15 2 23 -3 25 -10 4z"/>
<path d="M2424 162 c-9 -14 -8 -18 6 -18 11 0 15 6 12 18 -2 10 -5 18 -6 18
-1 0 -6 -8 -12 -18z"/>
<path d="M2590 176 c0 -2 8 -10 18 -17 15 -13 16 -12 3 4 -13 16 -21 21 -21
13z"/>
<path d="M1296 158 c3 -5 10 -6 15 -3 13 9 11 12 -6 12 -8 0 -12 -4 -9 -9z"/>
<path d="M2045 160 c-3 -6 1 -7 9 -4 18 7 21 14 7 14 -6 0 -13 -4 -16 -10z"/>
<path d="M2080 162 c0 -5 7 -9 15 -9 8 0 12 4 9 9 -7 10 -24 10 -24 0z"/>
<path d="M2175 160 c3 -5 11 -10 16 -10 6 0 7 5 4 10 -3 6 -11 10 -16 10 -6 0
-7 -4 -4 -10z"/>
<path d="M2240 161 c0 -5 7 -12 16 -15 14 -5 15 -4 4 9 -14 17 -20 19 -20 6z"/>
<path d="M2533 153 c0 -9 4 -10 14 -2 7 6 13 12 13 14 0 1 -6 2 -13 2 -8 0
-14 -6 -14 -14z"/>
<path d="M2635 160 c3 -5 8 -10 11 -10 2 0 4 5 4 10 0 6 -5 10 -11 10 -5 0 -7
-4 -4 -10z"/>
<path d="M1960 151 c0 -6 4 -13 10 -16 6 -3 7 1 4 9 -7 18 -14 21 -14 7z"/>
<path d="M1520 140 c-9 -6 -10 -10 -3 -10 6 0 15 5 18 10 8 12 4 12 -15 0z"/>
<path d="M1830 140 c0 -5 5 -10 11 -10 5 0 7 5 4 10 -3 6 -8 10 -11 10 -2 0
-4 -4 -4 -10z"/>
<path d="M1897 133 c6 -16 5 -16 -10 -4 -10 8 -20 11 -24 7 -3 -3 -1 -6 6 -6
7 0 9 -5 5 -12 -4 -7 -4 -10 1 -6 4 4 13 4 19 -2 8 -6 12 -3 13 10 1 11 -2 22
-8 25 -5 4 -6 -2 -2 -12z"/>
<path d="M1934 139 c-3 -6 -2 -15 4 -21 6 -6 12 -6 17 3 6 8 4 10 -5 4 -10 -6
-12 -4 -7 8 7 19 2 23 -9 6z"/>
<path d="M1995 140 c-3 -5 -1 -10 4 -10 6 0 11 5 11 10 0 6 -2 10 -4 10 -3 0
-8 -4 -11 -10z"/>
<path d="M2055 139 c-4 -6 -5 -12 -2 -15 2 -3 7 2 10 11 7 17 1 20 -8 4z"/>
<path d="M2115 140 c-3 -5 -1 -10 4 -10 6 0 11 5 11 10 0 6 -2 10 -4 10 -3 0
-8 -4 -11 -10z"/>
<path d="M1570 136 c0 -2 8 -10 18 -17 15 -13 16 -12 3 4 -13 16 -21 21 -21
13z"/>
<path d="M1655 130 c-4 -6 -10 -8 -15 -5 -10 6 -7 -21 4 -32 4 -4 6 -1 4 7 -1
8 2 14 8 13 6 -1 11 5 11 13 0 17 -4 18 -12 4z"/>
<path d="M1717 130 c7 -8 20 -15 29 -16 9 -1 13 1 9 4 -4 4 -10 7 -13 7 -4 0
-14 4 -22 9 -12 7 -13 6 -3 -4z"/>
<path d="M2075 130 c-3 -6 1 -7 9 -4 18 7 21 14 7 14 -6 0 -13 -4 -16 -10z"/>
<path d="M1693 115 c0 -8 4 -12 9 -9 5 3 6 10 3 15 -9 13 -12 11 -12 -6z"/>
<path d="M1793 111 c0 -11 5 -18 9 -15 4 3 5 11 1 19 -7 21 -12 19 -10 -4z"/>
<path d="M2033 111 c0 -11 5 -18 9 -15 4 3 5 11 1 19 -7 21 -12 19 -10 -4z"/>
<path d="M2135 121 c-3 -5 -2 -12 3 -15 5 -3 9 1 9 9 0 17 -3 19 -12 6z"/>
<path d="M2313 113 c0 -6 5 -9 11 -5 6 4 14 7 18 7 19 0 14 11 -6 11 -12 0
-23 -6 -23 -13z"/>
<path d="M2400 120 c-9 -6 -10 -10 -3 -10 6 0 15 5 18 10 8 12 4 12 -15 0z"/>
<path d="M2190 99 c0 -5 5 -7 10 -4 6 3 10 8 10 11 0 2 -4 4 -10 4 -5 0 -10
-5 -10 -11z"/>
<path d="M2226 98 c3 -5 10 -6 15 -3 13 9 11 12 -6 12 -8 0 -12 -4 -9 -9z"/>
<path d="M1549 83 c-13 -16 -12 -17 4 -4 16 13 21 21 13 21 -2 0 -10 -8 -17
-17z"/>
<path d="M2093 85 c0 -8 4 -12 9 -9 5 3 6 10 3 15 -9 13 -12 11 -12 -6z"/>
<path d="M1756 78 c3 -5 10 -6 15 -3 13 9 11 12 -6 12 -8 0 -12 -4 -9 -9z"/>
<path d="M1975 71 c-3 -5 -2 -12 3 -15 5 -3 9 1 9 9 0 17 -3 19 -12 6z"/>
<path d="M1815 61 c-3 -5 -2 -12 3 -15 5 -3 9 1 9 9 0 17 -3 19 -12 6z"/>
<path d="M2216 62 c-3 -5 1 -9 9 -9 8 0 12 4 9 9 -7 10 -11 10 -18 0z"/>
</g>
</svg>
