<?xml version="1.0" standalone="no"?>
<!DOCTYPE svg PUBLIC "-//W3C//DTD SVG 20010904//EN"
 "http://www.w3.org/TR/2001/REC-SVG-20010904/DTD/svg10.dtd">
<svg version="1.0" xmlns="http://www.w3.org/2000/svg"
 width="361.000000pt" height="277.000000pt" viewBox="0 0 361.000000 277.000000"
 preserveAspectRatio="xMidYMid meet">
<metadata>
Created by potrace 1.16, written by Peter Selinger 2001-2019
</metadata>
<g transform="translate(0.000000,277.000000) scale(0.100000,-0.100000)"
fill="white" stroke="none">
<path d="M1710 2688 c-25 -14 -64 -48 -88 -79 -23 -30 -369 -471 -770 -981
-601 -765 -731 -937 -752 -990 -23 -58 -25 -76 -25 -223 0 -188 10 -232 65
-287 l38 -38 1630 0 1631 0 35 30 c57 51 71 108 71 295 0 143 -2 166 -23 221
-20 51 -144 215 -734 965 -391 497 -735 937 -764 976 -72 97 -117 126 -203
131 -55 3 -74 -1 -111 -20z"/>
</g>
</svg>
